<svg id="Layer_1" data-name="Layer 1" xmlns="http://www.w3.org/2000/svg" viewBox="0 0 238.72 218.95">
  <defs>
    <style>
      .cls-1 {
        fill: #c6ecfe;
      }

      .cls-2 {
        fill: #b2cfeb;
      }

      .cls-3 {
        fill: #a9c5e1;
      }

      .cls-4 {
        fill: #bee2fe;
      }

      .cls-5 {
        fill: #b8daf7;
      }

      .cls-6 {
        fill: #bbd4ed;
      }

      .cls-7 {
        fill: #b7d4f1;
      }

      .cls-8 {
        fill: #b8d6f3;
      }

      .cls-9 {
        fill: #abc7e1;
      }

      .cls-10 {
        fill: #adcbe6;
      }
    </style>
  </defs>
  <g>
    <path class="cls-1" d="M221.78,0h3a34.83,34.83,0,0,1,13.9,13.93v2c-2,1.7-2,4-2,6.36V216.91H23c-2.07,0-4.34-.74-6.16,1C8.6,217.6,3.86,213.44,1,204.1,2.3,203,2,201.46,2,200L2,110.47V88.55L2,0H135.26c.71,2.9,3.09,1.94,4.87,2H217C218.71,1.94,221.08,2.9,221.78,0ZM6,10c-2.67.53-2,2.69-2,4.37V37.7q0,76.69.07,153.39c0,2-1.46,4.82,1.84,5.93,1.66,8.4,6,12,14.89,12H227.62c1.75,0,3.69.58,5.16-1,2-1,1.94-2.86,1.94-4.71V186.92q0-79.47-.07-158.95c0-2,1.47-4.81-1.83-5.93-2.7-8.82-6.83-12-15.73-12Z"/>
    <path class="cls-2" d="M236.72,188.05V22.28c0-2.34,0-4.66,2-6.36V188.06Z"/>
    <path class="cls-3" d="M.16,88.55,0,0H2L2,88.55Z"/>
    <path class="cls-4" d="M187,2H140.13C138.35,2,136,3,135.26.05H187Z"/>
    <path class="cls-5" d="M187,2V0h34.8c-.7,2.9-3.07,1.94-4.84,2Z"/>
    <path class="cls-6" d="M236.72,188.05h2V217.9a4.92,4.92,0,0,1-.94,0l-1.06-1Q236.71,202.47,236.72,188.05Z"/>
    <path class="cls-7" d="M236.68,216.9l1.06,1c-1.5,1.53-3.43.93-5.18.94H22.06c-1.76,0-3.68.58-5.2-.92,1.82-1.75,4.09-1,6.16-1Q129.85,216.89,236.68,216.9Z"/>
    <path class="cls-5" d="M6,10q0,93.51-.1,187c-3.3-1.11-1.84-3.92-1.84-5.93Q3.93,114.38,4,37.68V14.35C4,12.65,3.34,10.49,6,10Z"/>
    <path class="cls-8" d="M232.78,207.92v-186c3.3,1.12,1.83,3.93,1.83,5.93q.13,79.49.07,159v16.39C234.71,205.06,234.78,206.93,232.78,207.92Z"/>
    <path class="cls-9" d="M1,204.15c-1-.85-.95-2-.95-3.2l.15-90.49H2L2,200C2,201.46,2.3,203,1,204.15Z"/>
    <path class="cls-10" d="M2,110.46H.15V88.55H2Z"/>
  </g>
</svg>
